<svg width="27" height="35" viewBox="0 0 27 35" fill="none" xmlns="http://www.w3.org/2000/svg">
<path d="M18.4219 27.3438H8.57812V33.9062H18.4219V27.3438Z" fill="#B09001"/>
<path d="M25.6636 19.157C23.3323 18.5735 21.7031 16.4877 21.7031 14.0842V8.75C21.7031 4.2268 18.0232 0.546875 13.5 0.546875C8.97681 0.546875 5.29689 4.2268 5.29689 8.75V14.0842C5.29689 16.4883 3.66775 18.5735 1.33642 19.157L0.583374 19.3452L1.38126 20.5417C2.06322 21.5649 2.99783 22.3666 4.10251 22.8829C4.1747 22.8545 4.24306 22.8195 4.31853 22.7959L10.7656 20.7812V18.4084C9.434 17.6378 8.45728 16.322 8.14119 14.7656H8.03126C6.82322 14.7656 5.84376 13.7862 5.84376 12.5781C5.84376 11.3701 6.82322 10.3906 8.03126 10.3906C8.03126 8.8993 8.62955 7.54906 9.59752 6.5625H9.54283C9.28306 6.27211 9.12502 5.88875 9.12502 5.46875C9.12502 4.56258 9.85947 3.82812 10.7656 3.82812C11.2414 3.82812 11.6658 4.03375 11.9655 4.35695C12.1963 3.73023 12.7935 3.28125 13.5 3.28125C14.2066 3.28125 14.8038 3.73023 15.0345 4.35695C15.3342 4.03375 15.7586 3.82812 16.2344 3.82812C17.1406 3.82812 17.875 4.56258 17.875 5.46875C17.875 5.88875 17.717 6.27211 17.4572 6.5625H17.4025C18.3705 7.54906 18.9688 8.8993 18.9688 10.3906C20.1768 10.3906 21.1563 11.3701 21.1563 12.5781C21.1563 13.7862 20.1768 14.7656 18.9688 14.7656H18.8588C18.5427 16.322 17.566 17.6378 16.2344 18.4084V20.7812L22.682 22.7959C22.757 22.8195 22.8253 22.8545 22.8981 22.8829C24.0028 22.3666 24.9374 21.5649 25.6193 20.5417L26.4172 19.3452L25.6636 19.157Z" fill="#B09001"/>
<path d="M25.5312 25.9279C25.5312 24.2441 24.4517 22.7757 22.845 22.2737L16.7812 20.3793V18.7075C17.9898 17.9173 18.8944 16.7043 19.2909 15.2802C20.6455 15.1184 21.7031 13.9754 21.7031 12.5781C21.7031 11.2492 20.7494 10.1413 19.4905 9.89625C19.3871 8.63188 18.8949 7.47633 18.1287 6.55375C18.3169 6.22508 18.4219 5.8532 18.4219 5.46875C18.4219 4.26234 17.4408 3.28125 16.2344 3.28125C15.8702 3.28125 15.5125 3.37477 15.1953 3.54812C14.7873 3.04445 14.1666 2.73438 13.5 2.73438C12.8334 2.73438 12.2127 3.04445 11.8047 3.54812C11.4875 3.37477 11.1298 3.28125 10.7656 3.28125C9.55922 3.28125 8.57812 4.26234 8.57812 5.46875C8.57812 5.8532 8.68312 6.22508 8.87125 6.55375C8.10508 7.47688 7.61289 8.63242 7.50953 9.89625C6.25062 10.1413 5.29688 11.2492 5.29688 12.5781C5.29688 13.9754 6.35453 15.1184 7.70914 15.2797C8.10508 16.7043 9.01016 17.9167 10.2188 18.707V20.3787L4.155 22.2737C2.54828 22.7757 1.46875 24.2446 1.46875 25.9279V30.0781H2.5625V34.4531H24.4375V30.0781H25.5312V25.9279ZM20.3496 27.3104C20.8702 27.831 21.1562 28.5223 21.1562 29.2578C21.1562 29.9934 20.8702 30.6846 20.3496 31.2052L19.5156 32.0392V33.3594H7.48438V32.0392L6.65039 31.2052C6.12977 30.6846 5.84375 29.9934 5.84375 29.2578C5.84375 28.5223 6.12977 27.831 6.65039 27.3104C7.18797 26.7728 7.48438 26.0575 7.48438 25.2968V22.3792L8.57812 22.0374V26.25H18.4219V22.038L19.5156 22.3798V25.2973C19.5156 26.0575 19.812 26.7728 20.3496 27.3104ZM16.2344 8.20312V9.29688H15.1406V8.20312H14.0469V9.29688H12.9531V8.20312H11.8594V9.29688H10.7656V8.20312H9.67188V9.29688H8.705C9.2043 7.10828 11.1627 5.46875 13.5 5.46875C15.8373 5.46875 17.7957 7.10828 18.295 9.29688H17.3281V8.20312H16.2344ZM20.6094 12.5781C20.6094 13.2984 20.1396 13.9054 19.4927 14.1252C19.5041 13.9748 19.5156 13.825 19.5156 13.6719V11.0381C20.1505 11.2645 20.6094 11.8661 20.6094 12.5781ZM17.3281 5.46875C17.3281 5.5568 17.3139 5.6432 17.2931 5.72742C16.7517 5.28609 16.131 4.94156 15.4578 4.70914C15.6673 4.49477 15.9407 4.375 16.2344 4.375C16.8376 4.375 17.3281 4.86555 17.3281 5.46875ZM13.5 3.82812C13.92 3.82812 14.2946 4.08242 14.474 4.46141C14.1562 4.40891 13.8325 4.375 13.5 4.375C13.1675 4.375 12.8438 4.40891 12.526 4.46141C12.7054 4.08242 13.08 3.82812 13.5 3.82812ZM10.7656 4.375C11.0593 4.375 11.3327 4.49477 11.5416 4.70859C10.8684 4.94102 10.2477 5.28609 9.70633 5.72688C9.68609 5.64266 9.67188 5.5568 9.67188 5.46875C9.67188 4.86555 10.1624 4.375 10.7656 4.375ZM6.39062 12.5781C6.39062 11.8661 6.84945 11.2645 7.48438 11.0381V13.6719C7.48438 13.825 7.49586 13.9748 7.50734 14.1252C6.86039 13.9054 6.39062 13.2984 6.39062 12.5781ZM8.57812 13.6719V10.3906H18.4219V13.6719C18.4219 16.3855 16.2141 18.5938 13.5 18.5938C10.7859 18.5938 8.57812 16.3855 8.57812 13.6719ZM13.5 19.6875C14.2722 19.6875 15.0083 19.536 15.6875 19.2697V20.5548L13.5 22.7423L11.3125 20.5548V19.2697C11.9917 19.536 12.7278 19.6875 13.5 19.6875ZM10.613 21.402L13.5 24.2889L16.387 21.402L17.3281 21.6962V25.1562H9.67188V21.6962L10.613 21.402ZM2.5625 25.9279C2.5625 24.7253 3.33359 23.6764 4.48094 23.3182L6.39062 22.721V25.2968C6.39062 25.7649 6.20797 26.2057 5.87711 26.5371C5.21539 27.1988 4.8282 28.0596 4.76367 28.9844H2.5625V25.9279ZM3.65625 30.0781H4.83969C4.99391 30.7923 5.34773 31.4491 5.87656 31.9785L6.39062 32.492V33.3594H3.65625V30.0781ZM23.3438 33.3594H20.6094V32.492L21.1229 31.9785C21.6523 31.4497 22.0055 30.7929 22.1598 30.0781H23.3438V33.3594ZM24.4375 28.9844H22.2369C22.1723 28.0596 21.7852 27.1988 21.1234 26.5371C20.792 26.2057 20.6094 25.7655 20.6094 25.2968V22.721L22.5191 23.3177C23.6664 23.6764 24.4375 24.7253 24.4375 25.9279V28.9844Z" fill="#B09001"/>
<path d="M16.2344 12.5781C16.5364 12.5781 16.7812 12.3333 16.7812 12.0312C16.7812 11.7292 16.5364 11.4844 16.2344 11.4844C15.9323 11.4844 15.6875 11.7292 15.6875 12.0312C15.6875 12.3333 15.9323 12.5781 16.2344 12.5781Z" fill="#B09001"/>
<path d="M10.7656 12.5781C11.0677 12.5781 11.3125 12.3333 11.3125 12.0312C11.3125 11.7292 11.0677 11.4844 10.7656 11.4844C10.4636 11.4844 10.2188 11.7292 10.2188 12.0312C10.2188 12.3333 10.4636 12.5781 10.7656 12.5781Z" fill="#B09001"/>
<path d="M15.6875 14.7656H14.5938C14.5938 15.3688 14.1032 15.8594 13.5 15.8594C12.8968 15.8594 12.4062 15.3688 12.4062 14.7656H11.3125C11.3125 15.972 12.2936 16.9531 13.5 16.9531C14.7064 16.9531 15.6875 15.972 15.6875 14.7656Z" fill="#B09001"/>
<path d="M15.1406 29.5312H8.57812V30.625H15.1406V29.5312Z" fill="#B09001"/>
<path d="M18.4219 29.5312H16.2344V30.625H18.4219V29.5312Z" fill="#B09001"/>
</svg>
