<svg width="23" height="23" viewBox="0 0 23 23" fill="none" xmlns="http://www.w3.org/2000/svg">
<path fill-rule="evenodd" clip-rule="evenodd" d="M12.1933 0.13678L11.9344 0.141984C8.68217 0.279518 6.136 2.7107 6.136 5.66373V6.56979C6.136 9.61963 8.84589 12.0967 12.1933 12.0967L12.4523 12.0915C15.7045 11.954 18.2507 9.52282 18.2507 6.56979V5.66373C18.2507 2.61389 15.5408 0.13678 12.1933 0.13678ZM12.0116 2.13403L12.1933 2.13019C14.3193 2.13019 16.048 3.7104 16.048 5.66381V6.56987C16.048 8.46125 14.423 10.0129 12.3751 10.0996L12.1676 10.1038C10.0674 10.1035 8.33865 8.52328 8.33865 6.56987V5.66381C8.33865 3.77243 9.96366 2.22081 12.0116 2.13403ZM11.6427 14.0901C9.3046 14.0901 6.82368 14.4417 4.36175 15.0209C2.16459 15.5366 0.629333 17.2787 0.629333 19.2796V21.0668C0.629333 21.6172 1.12242 22.0634 1.73067 22.0634H21.5547C22.1629 22.0634 22.656 21.6172 22.656 21.0668V19.2796C22.656 17.2787 21.1208 15.5366 18.923 15.0208C16.4617 14.4417 13.9807 14.0901 11.6427 14.0901ZM11.6427 16.0835C13.7691 16.0835 16.074 16.4101 18.3694 16.9501L18.5618 17.0015C19.6956 17.3423 20.4533 18.256 20.4533 19.2796V20.0701H2.832V19.2796C2.832 18.1992 3.67632 17.2411 4.91532 16.9503C7.21139 16.4101 9.5162 16.0835 11.6427 16.0835Z" fill="#B09001"/>
</svg>
