<svg width="27" height="25" viewBox="0 0 27 25" fill="none" xmlns="http://www.w3.org/2000/svg">
<path d="M24.1243 11.0714L14.0287 3.32456C13.6907 3.06536 13.2048 3.06536 12.8668 3.32456L2.7713 11.0714C2.38809 11.3747 2.33528 11.9102 2.6527 12.2742C2.97012 12.6382 3.54026 12.696 3.9332 12.4039L5.1878 11.4416V21.2061C5.1878 21.6814 5.59871 22.0668 6.10558 22.0668H11.6122V16.9022H15.2833V22.0668H20.79C21.2969 22.0668 21.7078 21.6814 21.7078 21.2061V11.4416L22.9624 12.4039C23.2155 12.6042 23.5642 12.6611 23.8746 12.5526C24.185 12.4442 24.409 12.1873 24.4607 11.8804C24.5125 11.5736 24.3839 11.2644 24.1243 11.0714Z" fill="#C8C8C8"/>
</svg>
