<svg width="26" height="23" viewBox="0 0 26 23" fill="none" xmlns="http://www.w3.org/2000/svg">
<path d="M7.28174 21.0668C7.86102 21.0668 8.33063 20.6418 8.33063 20.1176C8.33063 19.5934 7.86102 19.1684 7.28174 19.1684C6.70245 19.1684 6.23285 19.5934 6.23285 20.1176C6.23285 20.6418 6.70245 21.0668 7.28174 21.0668Z" fill="#444444"/>
<path d="M21.9662 21.0668C22.5455 21.0668 23.0151 20.6418 23.0151 20.1176C23.0151 19.5934 22.5455 19.1684 21.9662 19.1684C21.3869 19.1684 20.9173 19.5934 20.9173 20.1176C20.9173 20.6418 21.3869 21.0668 21.9662 21.0668Z" fill="#444444"/>
<path d="M7.28175 18.1717C6.09422 18.1717 5.13153 19.0429 5.13153 20.1176C5.13153 21.1923 6.09422 22.0635 7.28175 22.0635C8.46929 22.0635 9.43198 21.1923 9.43198 20.1176C9.43198 19.0429 8.46929 18.1717 7.28175 18.1717Z" fill="#B09001"/>
<path d="M21.9662 18.1717C20.7787 18.1717 19.816 19.0429 19.816 20.1176C19.816 21.1923 20.7787 22.0635 21.9662 22.0635C23.1537 22.0635 24.1164 21.1923 24.1164 20.1176C24.1164 19.0429 23.1537 18.1717 21.9662 18.1717Z" fill="#B09001"/>
<path fill-rule="evenodd" clip-rule="evenodd" d="M6.25196 0.889824C6.13038 0.4519 5.6935 0.13681 5.18397 0.13681H2.03731L1.90887 0.143516C1.36113 0.201088 0.935974 0.62235 0.935974 1.13348L0.943384 1.24971C1.007 1.74539 1.4725 2.13014 2.03731 2.13014H4.21905L6.19008 15.5033L6.21376 15.6152C6.33534 16.0531 6.77222 16.3682 7.28175 16.3682H21.9662L22.0958 16.3614C22.5641 16.3114 22.9518 15.9941 23.0461 15.567L25.1439 6.07497L25.1619 5.95995C25.2144 5.38856 24.7155 4.88284 24.064 4.88284L6.84683 4.88194L6.27564 1.00175L6.25196 0.889824ZM7.14088 6.87526H22.7203L21.0628 14.3742H8.24552L7.14088 6.87526Z" fill="#B09001"/>
</svg>
