<svg width="28" height="25" viewBox="0 0 28 25" fill="none" xmlns="http://www.w3.org/2000/svg">
<path d="M8.28174 22.0668C8.86102 22.0668 9.33063 21.6418 9.33063 21.1176C9.33063 20.5934 8.86102 20.1684 8.28174 20.1684C7.70245 20.1684 7.23285 20.5934 7.23285 21.1176C7.23285 21.6418 7.70245 22.0668 8.28174 22.0668Z" fill="#444444"/>
<path d="M22.9662 22.0668C23.5455 22.0668 24.0151 21.6418 24.0151 21.1176C24.0151 20.5934 23.5455 20.1684 22.9662 20.1684C22.3869 20.1684 21.9173 20.5934 21.9173 21.1176C21.9173 21.6418 22.3869 22.0668 22.9662 22.0668Z" fill="#444444"/>
<path d="M8.28175 19.1717C7.09422 19.1717 6.13153 20.0429 6.13153 21.1176C6.13153 22.1923 7.09422 23.0635 8.28175 23.0635C9.46929 23.0635 10.432 22.1923 10.432 21.1176C10.432 20.0429 9.46929 19.1717 8.28175 19.1717Z" fill="#9D9EA3"/>
<path d="M22.9662 19.1717C21.7787 19.1717 20.816 20.0429 20.816 21.1176C20.816 22.1923 21.7787 23.0635 22.9662 23.0635C24.1537 23.0635 25.1164 22.1923 25.1164 21.1176C25.1164 20.0429 24.1537 19.1717 22.9662 19.1717Z" fill="#9D9EA3"/>
<path fill-rule="evenodd" clip-rule="evenodd" d="M7.25196 1.88982C7.13038 1.4519 6.6935 1.13681 6.18397 1.13681H3.03731L2.90887 1.14352C2.36113 1.20109 1.93597 1.62235 1.93597 2.13348L1.94338 2.24971C2.007 2.74539 2.4725 3.13014 3.03731 3.13014H5.21905L7.19008 16.5033L7.21376 16.6152C7.33534 17.0531 7.77222 17.3682 8.28175 17.3682H22.9662L23.0958 17.3614C23.5641 17.3114 23.9518 16.9941 24.0461 16.567L26.1439 7.07497L26.1619 6.95995C26.2144 6.38856 25.7155 5.88284 25.064 5.88284L7.84683 5.88194L7.27564 2.00175L7.25196 1.88982ZM8.14088 7.87526H23.7203L22.0628 15.3742H9.24552L8.14088 7.87526Z" fill="#9D9EA3"/>
</svg>
